/* XPM */
static char *result[] = {
/* columns rows colors chars-per-pixel */
"64 64 158 2 ",
"   c black",
".  c #010100",
"X  c #010101",
"o  c #020200",
"O  c #030300",
"+  c #020202",
"@  c #040400",
"#  c #070700",
"$  c #070707",
"%  c #080800",
"&  c #080801",
"*  c #080802",
"=  c #080804",
"-  c #080805",
";  c #080807",
":  c gray3",
">  c gray6",
",  c #101000",
"<  c #121200",
"1  c #131300",
"2  c gray12",
"3  c #202000",
"4  c #212100",
"5  c #212101",
"6  c #222201",
"7  c #262600",
"8  c #303000",
"9  c #3F3F00",
"0  c #37371B",
"q  c #38381B",
"w  c #3C3C1C",
"e  c #202020",
"r  c gray15",
"t  c #2C2C2C",
"y  c #2F2F2F",
"u  c #414100",
"i  c #575700",
"p  c #595918",
"a  c #616100",
"s  c #6C6C00",
"d  c #64640A",
"f  c #707000",
"g  c #747400",
"h  c #777700",
"j  c #7A7A34",
"k  c #74743D",
"l  c gray30",
"z  c #5F5F4A",
"x  c gray33",
"c  c gray35",
"v  c #5D5D5D",
"b  c #6E6E45",
"n  c #656551",
"m  c #7F7F52",
"M  c gray38",
"N  c #656565",
"B  c #6C6C6C",
"V  c #6D6D6D",
"C  c #767665",
"Z  c gray44",
"A  c #747474",
"S  c #898900",
"D  c #86860E",
"F  c #909000",
"G  c #9E9E00",
"H  c #98980B",
"J  c #9E9E0B",
"K  c #90901B",
"L  c #A0A000",
"P  c #A6A600",
"I  c #A9A900",
"U  c #ACAC00",
"Y  c #BBBB00",
"T  c #838329",
"R  c #909025",
"E  c #90903F",
"W  c #BABA2A",
"Q  c #C7C700",
"!  c #C7C704",
"~  c #CACA00",
"^  c #CFCF00",
"/  c #D3D300",
"(  c #D6D600",
")  c #DFDF00",
"_  c #C7C719",
"`  c #E0E000",
"'  c #E3E304",
"]  c #E4E404",
"[  c #EAEA00",
"{  c #EBEB00",
"}  c #EDED00",
"|  c #EEEE00",
" . c #F0F000",
".. c #F1F100",
"X. c #FEFE00",
"o. c yellow",
"O. c #FFFF06",
"+. c #FBFB1C",
"@. c #FFFF20",
"#. c #FFFF21",
"$. c #FFFF27",
"%. c #FFFF2B",
"&. c #FFFF30",
"*. c #FFFF31",
"=. c #FFFF36",
"-. c #818157",
";. c #909051",
":. c #90907E",
">. c #D6D646",
",. c #C7C75D",
"<. c #E2E242",
"1. c #FFFF41",
"2. c #FFFF5A",
"3. c #FFFF60",
"4. c #FFFF61",
"5. c #FFFF6F",
"6. c #FFFF70",
"7. c #FFFF75",
"8. c #FFFF77",
"9. c #FFFF7E",
"0. c gray55",
"q. c #909090",
"w. c #989898",
"e. c gray60",
"r. c #A0A0A0",
"t. c #A4A4A4",
"y. c #A5A5A5",
"u. c #B1B1B1",
"i. c #FFFF88",
"p. c #FFFF8B",
"a. c #FFFF90",
"s. c #FFFF9E",
"d. c #FFFF9F",
"f. c #E7E7A7",
"g. c #FFFFAB",
"h. c #FFFFBF",
"j. c gray78",
"k. c #D8D8D8",
"l. c gainsboro",
"z. c #DFDFDF",
"x. c #E3E3C3",
"c. c #FFFFCF",
"v. c #FFFFD0",
"b. c #FFFFD5",
"n. c #FFFFD6",
"m. c #FFFFDF",
"M. c gray88",
"N. c #EAEAEA",
"B. c LightYellow",
"V. c #FFFFEB",
"C. c #F3F3F3",
"Z. c gray97",
"A. c #FFFFF1",
"S. c #FFFFF3",
"D. c #FFFFF6",
"F. c #FFFFF9",
"G. c white",
"H. c None",
/* pixels */
"H.H.H.H.H.H.H.H.H.H.H.H.H.H.H.H.H.H.H.H.H.H.H.H.H.H.H.H.H.H.H.H.H.H.H.H.H.H.H.H.H.H.H.H.H.H.H.H.H.H.H.H.H.H.H.H.H.H.H.H.H.H.H.H.",
"H.H.H.H.H.H.H.H.H.H.H.H.H.H.H.H.H.H.H.H.H.H.H.H.H.H.H.H.H.H.H.H.H.H.H.H.H.H.H.H.H.H.H.H.H.H.H.H.H.H.H.H.H.H.H.H.H.H.H.H.H.H.H.H.",
"H.H.H.H.H.H.H.H.H.H.H.H.H.H.H.H.H.H.H.H.H.H.H.H.H.H.H.H.H.H.H.H.H.H.H.H.H.H.H.H.H.H.H.H.H.H.H.H.H.H.H.H.H.H.H.H.H.H.H.H.H.H.H.H.",
"H.H.H.H.H.H.H.H.H.H.H.H.H.H.H.H.H.H.H.H.H.H.H.H.H.H.H.H.H.H.H.$ $ r H.H.H.H.H.H.H.H.H.H.H.H.H.H.H.H.H.H.H.H.H.H.H.H.H.H.H.H.H.H.",
"H.H.H.H.H.H.H.H.H.H.H.H.H.H.H.H.H.H.H.H.H.H.H.H.H.H.H.H.H.H.H.    e H.H.H.H.H.H.H.H.H.H.H.H.H.H.H.H.H.H.H.H.H.H.H.H.H.H.H.H.H.H.",
"H.H.H.H.H.H.H.H.H.H.H.H.H.H.H.H.H.H.H.H.H.H.H.H.H.H.H.H.H.H.H.. . e H.H.H.H.H.H.H.H.H.H.H.H.H.H.H.H.H.H.H.H.H.H.H.H.H.H.H.H.H.H.",
"H.H.H.H.H.H.H.H.H.H.H.H.H.H.H.H.H.H.H.H.H.H.H.H.H.H.H.      F o.o.)       H.H.H.H.H.H.H.H.H.H.H.H.H.H.H.H.H.H.H.H.H.H.H.H.H.H.H.",
"H.H.H.H.H.H.H.H.H.H.H.H.H.H.H.H.H.H.H.H.H.H.H.H.H.H.H.      F o.o.)       H.H.H.H.H.H.H.H.H.H.H.H.H.H.H.H.H.H.H.H.H.H.H.H.H.H.H.",
"H.H.H.H.H.H.H.H.H.H.H.H.H.H.H.H.H.H.H.H.H.H.H.H.H.H.H.      F o.o.)       H.H.H.H.H.H.H.H.H.H.H.H.H.H.H.H.H.H.H.H.H.H.H.H.H.H.H.",
"H.H.H.H.H.H.H.H.H.H.H.H.H.H.H.H.H.H.H.H.H.H.H.H.H.H.H.      F o.o.)       H.H.H.H.H.H.H.H.H.H.H.H.H.H.H.H.H.H.H.H.H.H.H.H.H.H.H.",
"H.H.H.H.H.H.H.H.H.H.H.H.H.H.H.H.H.H.H.H.H.H.H.H.H.H.H.      F o.o.)       H.H.H.H.H.H.H.H.H.H.H.H.H.H.H.H.H.H.H.H.H.H.H.H.H.H.H.",
"H.H.H.H.H.H.H.H.H.H.H.H.H.H.H.H.H.H.H.H.H.H.H.H.H.H.H.      F o.o.)       H.H.H.H.H.H.H.H.H.H.H.H.H.H.H.H.H.H.H.H.H.H.H.H.H.H.H.",
"H.H.H.H.H.H.H.H.H.H.H.H.H.H.H.H.H.H.H.H.H.H.H.H.H.H.H.M M M W o.o.{ a a a m H.H.H.H.H.H.H.H.H.H.H.H.H.H.H.H.H.H.H.H.H.H.H.H.H.H.",
"H.H.H.H.H.H.H.H.H.H.H.H.H.H.H.H.H.H.H.H.H.H.H.x     + G.G.G.6.o.o.o.o.o.o.h     2 H.H.H.H.H.H.H.H.H.H.H.H.H.H.H.H.H.H.H.H.H.H.H.",
"H.H.H.H.H.H.H.H.H.H.H.H.H.H.H.H.H.H.H.H.H.H.H.x     + G.G.G.6.o.o.o.o.o.o.h     2 H.H.H.H.H.H.H.H.H.H.H.H.H.H.H.H.H.H.H.H.H.H.H.",
"H.H.H.H.H.H.H.H.H.H.H.H.H.H.H.H.H.H.H.H.H.H.H.x     + G.G.G.p.*.*.%.o.o.o.h     2 H.H.H.H.H.H.H.H.H.H.H.H.H.H.H.H.H.H.H.H.H.H.H.",
"H.H.H.H.H.H.H.H.H.H.H.H.H.H.H.H.H.H.H.H.H.H.H.x     + G.G.G.G.G.G.m.o.o.o.h     2 H.H.H.H.H.H.H.H.H.H.H.H.H.H.H.H.H.H.H.H.H.H.H.",
"H.H.H.H.H.H.H.H.H.H.H.H.H.H.H.H.H.H.H.H.H.H.H.x     + G.G.G.G.G.G.m.o.o.o.h     2 H.H.H.H.H.H.H.H.H.H.H.H.H.H.H.H.H.H.H.H.H.H.H.",
"H.H.H.H.H.H.H.H.H.H.H.H.H.H.H.H.H.H.H.H.H.H.H.z 3 3 6 m.m.m.A.G.G.m.o.o.o.S 3 3 q H.H.H.H.H.H.H.H.H.H.H.H.H.H.H.H.H.H.H.H.H.H.H.",
"H.H.H.H.H.H.H.H.H.H.H.H.H.H.H.H.H.H.H.H.t 2 2 J ` ` ` @.@.@.s.G.G.m.o.o.o.| ` ` ! 0 2 2 H.H.H.H.H.H.H.H.H.H.H.H.H.H.H.H.H.H.H.H.",
"H.H.H.H.H.H.H.H.H.H.H.H.H.H.H.H.H.H.H.H.>     I o.o.o.o.o.o.a.G.G.m.o.o.o.o.o.o.) 3     H.H.H.H.H.H.H.H.H.H.H.H.H.H.H.H.H.H.H.H.",
"H.H.H.H.H.H.H.H.H.H.H.H.H.H.H.H.H.H.H.H.>     I o.o.o.o.o.o.a.G.G.m.o.o.o.o.o.o.) 3     H.H.H.H.H.H.H.H.H.H.H.H.H.H.H.H.H.H.H.H.",
"H.H.H.H.H.H.H.H.H.H.H.H.H.H.H.H.H.H.H.H.>     I o.o.o.o.o.o.a.G.G.F.v.v.v.4.o.o.) 3     H.H.H.H.H.H.H.H.H.H.H.H.H.H.H.H.H.H.H.H.",
"H.H.H.H.H.H.H.H.H.H.H.H.H.H.H.H.H.H.H.H.>     I o.o.o.o.o.o.a.G.G.G.G.G.G.8.o.o.) 3     H.H.H.H.H.H.H.H.H.H.H.H.H.H.H.H.H.H.H.H.",
"H.H.H.H.H.H.H.H.H.H.H.H.H.H.H.H.H.H.H.H.>     I o.o.o.o.o.o.a.G.G.G.G.G.G.8.o.o.) 3     H.H.H.H.H.H.H.H.H.H.H.H.H.H.H.H.H.H.H.H.",
"H.H.H.H.H.H.H.H.H.H.H.H.H.H.H.H.H.H.H.H.d a a ~ o.o.o.o.o.o.2.d.d.g.G.G.G.8.o.o.{ g a a -.H.H.H.H.H.H.H.H.H.H.H.H.H.H.H.H.H.H.H.",
"H.H.H.H.H.H.H.H.H.H.H.H.H.H.H.H.H.    8  .o.o.o.o.o.o.o.o.o.o.o.o.#.G.G.G.8.o.o.o.o.o.o.f     y H.H.H.H.H.H.H.H.H.H.H.H.H.H.H.H.",
"H.H.H.H.H.H.H.H.H.H.H.H.H.H.H.H.B     8  .o.o.o.o.o.o.o.o.o.o.o.o.#.G.G.G.8.o.o.o.o.o.o.f     y H.H.H.H.H.H.H.H.H.H.H.H.H.H.H.H.",
"H.H.H.H.H.H.H.H.H.H.H.H.H.H.H.H.B     7 Y Q Q Q Q Q Q Q Q Q Q Q Q _ j.j.j.,.Q Q Q Q Q Q i     y H.H.H.H.H.H.H.H.H.H.H.H.H.H.H.H.",
"H.H.H.H.H.H.H.H.H.H.H.H.H.H.H.H.B     o # % % % % % % % % % % % % & : : : = % % % % % % O     y H.H.H.H.H.H.H.H.H.H.H.H.H.H.H.H.",
"H.H.H.H.H.H.H.H.H.H.H.H.H.H.H.H.B                                                             y H.H.H.H.H.H.H.H.H.H.H.H.H.H.H.H.",
"H.H.H.H.H.H.H.H.H.H.H.H.H.H.H.H.B . .           X X X X X X X X X X X X X X X X X         . . y H.H.H.H.H.H.H.H.H.H.H.H.H.H.H.H.",
"H.H.H.H.H.H.H.H.H.H.H.H.H.2     F o.o.^ ,     t.Z.Z.Z.Z.Z.Z.Z.Z.Z.Z.Z.Z.Z.Z.Z.Z.k.2     F o.o.^ 3     V H.H.H.H.H.H.H.H.H.H.H.H.",
"H.H.H.H.H.H.H.H.H.H.H.H.H.2     F o.o.^ ,     t.Z.Z.Z.Z.Z.Z.Z.Z.Z.Z.Z.Z.Z.Z.Z.Z.k.2     F o.o.^ 3     V H.H.H.H.H.H.H.H.H.H.H.H.",
"H.H.H.H.H.H.H.H.H.H.H.H.H.2     F o.o.^ ,     t.Z.Z.Z.Z.Z.Z.Z.Z.Z.Z.Z.Z.Z.Z.Z.Z.k.2     F o.o.^ 3     V H.H.H.H.H.H.H.H.H.H.H.H.",
"H.H.H.H.H.H.H.H.H.H.H.H.H.2     F o.o.^ ,     t.Z.Z.Z.Z.Z.Z.Z.Z.Z.Z.Z.Z.Z.Z.Z.Z.k.2     F o.o.^ 3     V H.H.H.H.H.H.H.H.H.H.H.H.",
"H.H.H.H.H.H.H.H.H.H.H.H.H.2     F o.o.^ ,     t.Z.Z.Z.Z.Z.Z.Z.Z.Z.Z.Z.Z.Z.Z.Z.Z.k.2     F o.o.^ 3     V H.H.H.H.H.H.H.H.H.H.H.H.",
"H.H.H.H.H.H.H.H.H.H.H.H.H.2     F o.o.^ ,     t.Z.Z.Z.Z.Z.Z.Z.Z.Z.Z.Z.Z.Z.Z.Z.Z.k.2     F o.o.^ 3     V H.H.H.H.H.H.H.H.H.H.H.H.",
"H.H.H.H.H.H.H.H.H.H.H.v b H L L ( o.o.} P L L k v v v Z.Z.Z.Z.Z.Z.Z.Z.Z.Z.y.v v N w.r.r.>.o.o.} U L L T v v v H.H.H.H.H.H.H.H.H.",
"H.H.H.H.H.H.H.H.H.H.    u ` o.o.o.o.o.o.o.o.o.i     + Z.Z.Z.Z.Z.Z.Z.Z.Z.Z.A     e M.G.G.6.o.o.o.o.o.o.F     X H.H.H.H.H.H.H.H.H.",
"H.H.H.H.H.H.H.H.H.H.    u ` o.o.o.o.o.o.o.o.o.i     + Z.Z.Z.Z.Z.Z.Z.Z.Z.Z.A     e M.G.G.6.o.o.o.o.o.o.F     X H.H.H.H.H.H.H.H.H.",
"H.H.H.H.H.H.H.H.H.l     u ` o.o.o.o.o.o.o.o.o.i     + Z.Z.Z.Z.Z.Z.Z.Z.Z.Z.A     e M.G.G.p.*.*.$.O.o.o.F     X H.H.H.H.H.H.H.H.H.",
"H.H.H.H.H.H.H.H.H.l     u ` o.o.o.o.o.o.o.o.o.i     + Z.Z.Z.Z.Z.Z.Z.Z.Z.Z.A     e M.G.G.G.G.G.c.@.o.o.F     X H.H.H.H.H.H.H.H.H.",
"H.H.H.H.H.H.H.H.H.l     u ` o.o.o.o.o.o.o.o.o.i     + Z.Z.Z.Z.Z.Z.Z.Z.Z.Z.A     e M.G.G.G.G.G.c.@.o.o.F     X H.H.H.H.H.H.H.H.H.",
"H.H.H.H.H.H.H.H.k.c e e p ] o.o.o.o.o.o.o.o.o.s 3 3 5 k.k.k.N.Z.Z.C.k.k.k.C 3 3 w x.m.m.A.G.G.c.@.o.o.G 3 3 3 H.H.H.H.H.H.H.H.H.",
"H.H.H.H.H.H.2 2 2 t.z.z.f.+.o.o.o.o.o.o.o.o.o.[ ) ) ) 2 2 2 e.Z.Z.l.2 2 2 D ) ) ' +.@.@.s.G.G.c.@.o.o...) ) ) 2 2 2 H.H.H.H.H.H.",
"H.H.H.H.H.H.      u.G.G.h.@.o.o.o.o.o.o.o.o.o.o.o.o.X.      0.Z.Z.k.      S o.o.o.o.o.o.a.G.G.c.@.o.o.o.o.o.o.      H.H.H.H.H.H.",
"H.H.H.H.H.H.      u.G.G.h.@.o.o.o.o.o.o.o.o.o.o.o.o.X.      0.Z.Z.k.      S o.o.o.o.o.o.a.G.G.c.@.o.o.o.o.o.o.      H.H.H.H.H.H.",
"H.H.H.H.H.H.      u.G.G.S.b.v.v.2.o.o.o.o.o.o.o.o.o.X.      0.Z.Z.k.      S o.o.o.o.o.o.a.G.G.D.n.v.v.7.o.o.o.      H.H.H.H.H.H.",
"H.H.H.H.H.H.      u.G.G.G.G.G.G.5.o.o.o.o.o.o.o.o.o.X.      0.Z.Z.k.      S o.o.o.o.o.o.a.G.G.G.G.G.G.a.o.o.o.      H.H.H.H.H.H.",
"H.H.H.H.H.k.      u.G.G.G.G.G.G.5.o.o.o.o.o.o.o.o.o.X.      0.Z.Z.k.      S o.o.o.o.o.o.a.G.G.G.G.G.G.a.o.o.o.      H.H.H.H.H.H.",
"H.H.H.H.v n L L L <.3.3.i.V.G.G.5.o.o.o.o.o.o.o.o.o.o.L L L j v v n L L L / o.o.o.o.o.o.=.3.3.9.V.G.G.a.o.o.o.L L L j v v Z H.H.",
"H.H.H.    4 o.o.o.o.o.o.1.B.G.G.5.o.o.o.o.o.o.o.o.o.o.o.o.o.f     4 o.o.o.o.o.o.o.o.o.o.o.o.o.&.B.G.G.a.o.o.o.o.o.o.f     2 H.H.",
"H.H.H.    4 o.o.o.o.o.o.1.B.G.G.5.o.o.o.o.o.o.o.o.o.o.o.o.o.f     4 o.o.o.o.o.o.o.o.o.o.o.o.o.&.B.G.G.a.o.o.o.o.o.o.f     2 H.H.",
"H.H.H.    1 F F F F F F R :.q.q.E F F F F F F F F F F F F F 9     < F F F F F F F F F F F F F K :.q.q.;.F F F F F F 9     2 H.H.",
"H.H.H.    . % % % % % % * ; : : = % % % % % % % % % % % % % @     . % % % % % % % % % % % % % * ; : : - % % % % % % @     2 H.H.",
"H.H.H.                                                                                                                    2 H.H.",
"H.H.H.                                                                                                                    2 H.H.",
"H.H.H.H.H.H.H.H.H.H.H.H.H.H.H.H.H.H.H.H.H.H.H.H.H.H.H.H.H.H.H.H.H.H.H.H.H.H.H.H.H.H.H.H.H.H.H.H.H.H.H.H.H.H.H.H.H.H.H.H.H.H.H.H.",
"H.H.H.H.H.H.H.H.H.H.H.H.H.H.H.H.H.H.H.H.H.H.H.H.H.H.H.H.H.H.H.H.H.H.H.H.H.H.H.H.H.H.H.H.H.H.H.H.H.H.H.H.H.H.H.H.H.H.H.H.H.H.H.H.",
"H.H.H.H.H.H.H.H.H.H.H.H.H.H.H.H.H.H.H.H.H.H.H.H.H.H.H.H.H.H.H.H.H.H.H.H.H.H.H.H.H.H.H.H.H.H.H.H.H.H.H.H.H.H.H.H.H.H.H.H.H.H.H.H.",
"H.H.H.H.H.H.H.H.H.H.H.H.H.H.H.H.H.H.H.H.H.H.H.H.H.H.H.H.H.H.H.H.H.H.H.H.H.H.H.H.H.H.H.H.H.H.H.H.H.H.H.H.H.H.H.H.H.H.H.H.H.H.H.H.",
"H.H.H.H.H.H.H.H.H.H.H.H.H.H.H.H.H.H.H.H.H.H.H.H.H.H.H.H.H.H.H.H.H.H.H.H.H.H.H.H.H.H.H.H.H.H.H.H.H.H.H.H.H.H.H.H.H.H.H.H.H.H.H.H.",
"H.H.H.H.H.H.H.H.H.H.H.H.H.H.H.H.H.H.H.H.H.H.H.H.H.H.H.H.H.H.H.H.H.H.H.H.H.H.H.H.H.H.H.H.H.H.H.H.H.H.H.H.H.H.H.H.H.H.H.H.H.H.H.H."
};
