/* XPM */
static char *_92582b514fc49aed711180ef9e3a867CYixQbf2rEejDGzG[] = {
/* columns rows colors chars-per-pixel */
"64 64 2 1 ",
"  c #737322",
". c #B7921C",
/* pixels */
".................  ..........................  .................",
".................   .........................  .................",
".................  .   ......................    ...............",
".................  ...  .....................  ..   ............",
".................     .  ....................  ....   ..........",
"                                                                ",
"                                                                ",
".  .. ....      .....................  ..............    .......",
"..  .  ...    .......................  ...............   .......",
"...  . ...   ........................  ................  .......",
".....   ..  .........................  ................  .......",
".......     .........................  ................  .......",
".........   .........................   ...............  .......",
"..........  ........          .......   ...............  .....  ",
"..........  .......  ....  ..   .....    ..............  ....  .",
"                                                                ",
"                                                                ",
".  ....................  ......................  ...............",
".  ....................  ......................  ...............",
".  ...... .............  ......................  ...............",
".  ....................  .......        .......  ...............",
".  ..........     .....  ..........   .........  ...............",
".  ....................  ........  ............  ...............",
"                                                                ",
"                                                                ",
".........  ..........................  ....  ............  .....",
".........  ..  ......................  ..   .............  .....",
".........  ...  .....................     ...............  .....",
".........  ....  ....................   . .............    .....",
".........  ......  ..................  .. ............     .....",
".........  .....     ................     ............     .....",
"                                                                ",
"                                                                ",
".  ...................  ......................  ................",
".  ...................  ......................  ................",
".  ...................  ......................  ................",
".  ...................  ....................    ................",
".  ................  .  ...............           ..............",
".  ................     ............    ......    ..............",
"                                                                ",
"                                                                ",
"..........  .....  ....... .............  ............... ..  ..",
"..........  ......    ...  .............  .............  ...  ..",
"..........  .........  .  ..............  ..........   .....  ..",
"..........  .........    ...............  ......... ........  ..",
"..........  .......   ..................  .......  .........  ..",
"..........   ...... ....................  .....  . .........  ..",
"..........    ...  .....................  ....  .. .........  ..",
"..........  ..    ......................  .... .. ..........  ..",
"                                                                ",
"                                                                ",
".  ...................  ........................  ....... ......",
".  ...................  ........................  ......  ......",
".  ...................  .. .................. ..  .....   ......",
".  ...................  .    ............... ...  .... .  ......",
".  ...... ............  ....  ........... .   ..  ...  . .......",
".  .. .... ...........   .     ............ ....  ..  .. .......",
".  ...  .. ...........  .  ...  ................  .  ...........",
"                                                                ",
"                                                                ",
"......  .........  ............  .............  ..... ...... ...",
"....   ..........  ..........  ...............  ..    ...... ...",
"     ............  .........  ................     ..........  .",
".................  ........  .................     ............."
};
