/* XPM */
static char *result[] = {
/* columns rows colors chars-per-pixel */
"64 64 202 2 ",
"   c #6B4F23",
".  c #6A4F24",
"X  c #6B4F24",
"o  c #6C4F25",
"O  c #6D4F25",
"+  c #6E4E26",
"@  c #6E4F26",
"#  c #6F4F27",
"$  c #704F27",
"%  c #714F28",
"&  c #695023",
"*  c #695123",
"=  c #6A5022",
"-  c #6A5122",
";  c #6A5023",
":  c #6B5023",
">  c #6B5123",
",  c #6A5322",
"<  c #6A5223",
"1  c #6B5223",
"2  c #6B5323",
"3  c #6D5223",
"4  c #6C5323",
"5  c #6B5423",
"6  c #6D5423",
"7  c #6A5024",
"8  c #6A5124",
"9  c #6B5124",
"0  c #6B5025",
"q  c #6C5024",
"w  c #6C5124",
"e  c #6D5124",
"r  c #6C5025",
"t  c #6D5025",
"y  c #6D5125",
"u  c #6E5124",
"i  c #6F5025",
"p  c #6E5125",
"a  c #6F5125",
"s  c #6C5224",
"d  c #6D5224",
"f  c #6C5324",
"g  c #6C5225",
"h  c #6D5325",
"j  c #6E5324",
"k  c #6F5324",
"l  c #6F5225",
"z  c #6E5325",
"x  c #6F5325",
"c  c #6E5026",
"v  c #6E5126",
"b  c #6F5126",
"n  c #6F5027",
"m  c #6F5127",
"M  c #6E5226",
"N  c #6F5226",
"B  c #6F5326",
"V  c #6F5327",
"C  c #6D5424",
"Z  c #6E5524",
"A  c #6F5524",
"S  c #6F5425",
"D  c #6F5625",
"F  c #705325",
"G  c #705126",
"H  c #705027",
"J  c #715127",
"K  c #725127",
"L  c #705226",
"P  c #715226",
"I  c #705326",
"U  c #705227",
"Y  c #715227",
"T  c #705327",
"R  c #715327",
"E  c #725326",
"W  c #735326",
"Q  c #725327",
"!  c #705425",
"~  c #715425",
"^  c #705525",
"/  c #715525",
"(  c #705624",
")  c #705625",
"_  c #705725",
"`  c #715725",
"'  c #725625",
"]  c #715426",
"[  c #705526",
"{  c #715526",
"}  c #705427",
"|  c #715427",
" . c #725526",
".. c #735526",
"X. c #725427",
"o. c #735427",
"O. c #725527",
"+. c #715626",
"@. c #715627",
"#. c #725626",
"$. c #735726",
"%. c #735627",
"&. c #735727",
"*. c #745427",
"=. c #755527",
"-. c #765527",
";. c #745627",
":. c #755727",
">. c #765727",
",. c #725826",
"<. c #735926",
"1. c #745826",
"2. c #745827",
"3. c #755927",
"4. c #765927",
"5. c #715028",
"6. c #715128",
"7. c #715029",
"8. c #725028",
"9. c #735128",
"0. c #725129",
"q. c #735129",
"w. c #715328",
"e. c #725228",
"r. c #735228",
"t. c #725229",
"y. c #735329",
"u. c #745129",
"i. c #745328",
"p. c #755328",
"a. c #745229",
"s. c #755229",
"d. c #745329",
"f. c #765229",
"g. c #74522A",
"h. c #75522A",
"j. c #75532A",
"k. c #76532A",
"l. c #77532A",
"z. c #76532B",
"x. c #77532B",
"c. c #725428",
"v. c #735428",
"b. c #725528",
"n. c #735529",
"m. c #735628",
"M. c #755428",
"N. c #745528",
"B. c #755528",
"V. c #745429",
"C. c #755429",
"Z. c #745529",
"A. c #775528",
"S. c #765429",
"D. c #765529",
"F. c #775529",
"G. c #745628",
"H. c #755628",
"J. c #745728",
"K. c #755728",
"L. c #755629",
"P. c #765628",
"I. c #775628",
"U. c #775728",
"Y. c #765629",
"T. c #775729",
"R. c #75542A",
"E. c #77542A",
"W. c #76552A",
"Q. c #77552A",
"!. c #77562A",
"~. c #77572A",
"^. c #79532B",
"/. c #785728",
"(. c #785629",
"). c #785729",
"_. c #78542A",
"`. c #79552A",
"'. c #78542B",
"]. c #79552B",
"[. c #7B542B",
"{. c #78562A",
"}. c #79562A",
"|. c #79572A",
" X c #78562B",
".X c #79572B",
"XX c #7A572A",
"oX c #7B562B",
"OX c #7B572C",
"+X c #765828",
"@X c #775828",
"#X c #775928",
"$X c #785829",
"%X c #795829",
"&X c #785929",
"*X c #795A29",
"=X c #7A5B29",
"-X c #78582A",
";X c #79582A",
":X c #7A592A",
">X c #7A582B",
",X c #7B582B",
/* pixels */
"r.c.Y Q Z *.O...d b N.^ H.Q.$X$XI W m m *.X.y...[ K H.I y c - L B H d.{.j x *.x v y m ] U  .^ J.K.v c.E.L.R N.J.V.L K c r R ;. .",
"G Q q 6.h Q %.x J.] I r Y L Y o.@XX.H ] $Xo.I J.f N q.4 > R ..l N [ k.e.e.4 R Q L S y ] I.K...S U Q Q N.O.e.y @ H N.U.e.y p o.] ",
"9 m e g B.K B.I J.I N.N.o.y B 6.h Q c.S I.Y.c.y 8 y p.] T.H.S *.y p r.}.T.g N.b r.] S.] %.M.B.p b ;.x ] Q Q ) { O.*.N.N.N.p R | ",
"y ;Xl #.o.R d.B.]  .S.~.Y U U u.m H _.c.h m Y N e ~ N.c.;X!.s %.Y O.i.y.c.U K B. .*.e.g M v 6.U U ..X.y U U I $.B...y r.N.T.r.I ",
"H.*Xo.%. .I b B r.B.r.e.C M d.S e.o.Y.p.b X c X...o.#.H.C.h.s I c.j 8.c.y R B.I. .] o.^ M.w.m e.] O.] g N.p.Y.I N. .o.N.X.U e.b ",
"*.o.e.;.N p B s 7.I v.b B.l v.U Q | ] m b y b p N.v.] L c.N.] B.e.R s.] l.E >.U T.P.X.Q [.{.B.B.I O.U I B.p.K.r.] Y Y.] y T.T.v.",
":.Q v.Q B B.W X.S.X.r.:.| B y H c.S.X.T N I.).] c.N.#Xb U M v ] '.I.T.D.c X.y.H Y N.U @ a.p.o.v.p r.Y Q H. .c r./ r %.N.] B b v.",
"r.c Q e.X.y P.o.I Y I b X.C.I Y ;XT.*.x ^ S U :XJ.Y Y c.% n H B m. .N.`.p.T.p.b U B M.U o.#X.X| O @ r.m ] Q U M Z L d R j q U L ",
"*.y v.m b 0 B l 6.r 9 q { %XK.+.Q N.;.O.) N r.XX(.M.N Q Q S L ] Q q r.b.].J.N K o.b d.K #.d.d.U c b b L N x d.8 < B ] e.d X.H.:.",
"Z S ] *.o.Q j c.l c r | o.N } * y U ;.] I R P...m C.N.S.k.S X.f @ 9 H N.M.O.] R 6.v.J r.N b Q r.N [ ;.S.H.l R Q ! ] t @ c.Q B.] ",
"4 L Q / C.B l N./ F.;XY.Q B q M c e.g e.L L c.z c c y y.O.I { [ | N.%.I.Q m Q { i.U Q Q U %.] d.~ T.P.Q c.g 6.M.Q.] U v.M.Q.Q g ",
"{ Q o.y F.}.] X.l d.X.r.v.K.M.T.|.] Q 6.t *.J.P.%.#.g 6.Q i.I l N.J.y 6.I N.m 1 E.N Y Y l X.F b v.R c.Q  .j Y c.R Q M.B.L.$.F.y ",
"Y S U c J.*.T.X.e.U Y d.l N p.N.|.J.o.I X.R v.+.L | Q c.J N.M.] N.B.I *.$.M.] S K O.d.Q ' ! p d.c m e.K S %.I.X.c ] T.{.I N b *.",
"$./ p J.Y.T.B.W y.*.c.r.> t f 6.e.d S.,.[ Q g y p B C.S.(.o.N.J.| | M *.l L R j Q K.#.$X%.[ y e.] K ] ..] B.y i. .>.%.r.N.B.N.O.",
"#.#.R B.B b M.O.U v.X.d.M.H.*.$.j ] X.w I S N.R j Y d.a.c.Q I U Y I y c.y y U l R J.u !.b N {.K | u o.*.| R t N.! ;.j U r.N.N.{ ",
"p B ] c U U 9.S T Y c ] (.(.,X[ ] b U e.&.#.I L { H.O.I c.*.S 8 U U U U I P *.Y.| s Q  .x d.{.p c.j X.I I Y o.I B ).:.=X@XQ S.%.",
"M M I B Q J.d.U _.{.p.).%.S.r.L %.L L X.y S N.I r N p B ;.Y j h Y.Y.U.P.T.T.B.K  .l m I ; U N.d 8.y y N x ] ;.! U N.%.] S 6.Y I ",
"y #.B M N %.;.I {.*.d.N.N.S.] C.y N.N.Y n S *.r.X.p p G.;.q 4 Y I.Q.c.N B Q S.U N L d.U J.r.M | B.S.L Z ;.B c Z  .B 0 0 9 % r.U ",
"%.A j *.K.L B ] K N M d.d.e.F.Q L Y.B I C.{ m U %.r.9 B R s s c.y.d.U I B U U L 1.Y.F.I c.@Xd I .X[ Q y M R L (.h M.o.x N.*.a.X.",
"j s r %.S p o.] e.I l I i.y.r.T. .&XQ *.{.I.Q *.! |.h s Y M j ] Q K H.Q Q q h ..#X] T L y *XI.U p.O.%.x | H.B y.b F.:.[ Y L Y m ",
"y * o.B.S N L ] P.N.O.w M U b H R E Q J.r.L.N.U 2 d.I +.;.L Y Q Q.M.I K Q.#.! +XS.p S I Q B.Q H g p p x ! {.l H J r.N.L J J q 6.",
"u N N.c.c.c.] Y L U 6.I ] w q.c L r e.p m u.-Xv.w t N.Z [ l L Q '.c q t U Q ~ X.m B d g l c R H h U o.B N v ..X.Q b q.r.O.H.P.N.",
"x H.Q B Y J.i.F.R B %.;X#./ Q c.x l I ^ X.r.v.H.#. .c.< h g B.e.R R N.v.Q.I.*.R b Q p Q d q I l I.j Y ]  .U Q O.X.;XS.S.;.D.*.Q ",
"I.N.o.o.c.b b  XT.Y.B.-X[ ^ z 6.C.c.S., B D.N U | v.I N Y l *.m B s.d.Q y.K U M c.%.o.Q y @.$.Y Q 2 R  .l S.r.n ] {.-Xp.] N.S.U ",
"y b y ~ M.U e.e.S K w.C.N  .S e.Q g.| | ] ] p 9.t.B g ..Q R / %.S D.M.*.6.H t M Y r.%.*.%.*./ L i ] B.#.w Q...D.| K r.m M N.c.Q ",
"Q {.%.#XF.x b N 8 l L L ^ B.Q N.N.# M l  .{ y t H S *X#XJ.Q h X./.O.B.%.Q r.6.3  .N.Q.H.T.] ] J.O.*.Y p N.] ,.v.c.l O.p l K q e.",
"c.C.b.U H S y I x ] p y Q M.6. .{.+Xc. .4 q O...M.[ y l y R   v ..d v c.B.o.b ] o.B.N.I ] Q < E.$X;.c q L M s M M L R I x L y U ",
"y P U ] L y r x  .B y b z N N.F.r.S x X.j l z ! e.z l I Y ,X&.N.[ M c c ;.N.Q l b v L o.S I s R 6.L I N z J p p R c.R l d.v.c.U ",
"I R l p r Y S N S h I r.; N ..u.6.I P N.B N z c v.>.%.C.Q N.#.|.x U O.;.S %.U.Y Q c D.H.y D.XXB.H I `.b %.L l Q ;.I O.] c.R Y o.",
"C.Q {.y l OX$.b +XE Q o.T.X.;.9.I X.R 6.h S X.T.N.d.q 6.s U W.d.U c ;XH.l , N N.B.m v.o.Y p.I R K T.U.Q Q ..N.] ..L | c.y.b b x ",
"a.r.v.K.j D.Q =.).N.H v.d.a.] H.l o c K ] f b c.B # m  .d x $ U m w ] *.y Q O e.R ] B q E.U y O b c.m K v. .M.p l h V.N R x I X.",
"U L R r.B H.;.o.Y S K d.v e.N.B.v.I ..:XI g ; O L y I _ S T.X.P.F.x d I.X.r.6.Q ] v.Q e j.b I v.B.Q N X.O.c.Q Y p s N } x b H.E ",
"U G ! R I Y.o.P N y N Q v.{ N.B.Q H.%.o.b %.I.XX#.Q N.{ I j Q o.{.P.> U o.e.D.] J.O.X.T.S...l {.S Q s | x j J U M.H.K.;.B.Q e.c ",
"I P.l &.Y v c ] O.;X*.N.B.;.o.O.U N 6.y P.J.I.oX%.B X.x L.] ;.I c.O.X.U ] C.%.+.O.[ p R K B ..] x g h X.l $.v.N 0.Q s.h d.c.U r ",
"S b m 6 T.U K c.N.W.*.S.U M.B.I  .L r.Q >X1.T.M.%.*./ H v ..i.U N I _ Q B.p.N M U Y.o.] p.U +X1.F.d B Q r...o.b e.h M.B.v.v.o.{ ",
"[ U d.I O.U U a.r.V.i.#X;.v.Y K.) M.E v.'.+X! F.[ R y v.x y.e.I l Y f Q.T b e.y d.y.M.< L r.R S v.| Q C.6.m U L U b N.e.! o.+.%.",
" .I t H I o.M.o.6.t.H b ] S s B.o. .C o.B.B.y d.%.U y M.P...T.#.S y z C.Y h Q N Y.U.O.B W Q N.C K X.C.X.p.Q o.I S.Y E.c.' N.p.Q ",
"F.] S z Y e.M M p.N.;.k.8 q ] e m ] ! I I U y.e.N y.k I z.g 6.] Q L R c m b ] U T H.y B N.X.r.j m S P.L [ N.! N.Q M h.Q S l N.E ",
"j M.{.T.c.R c Y Y.{.O.o.L z B ; 6.L o.c.R L d.K.[ w.6 B.k.o.U  .| c.p.I.{.,XQ Q R l.v.%.a.N K x y $.Y O. .J.l v # Y v.B 8 B s U ",
"f y.d.p e.<.*.X.Q e._ S +XO.N.F 4.R  .Z.l N R R l B j c n B N.v.O.p.R %.Q.T.V.Y.P.6.N.R f.E.i.l *.K.; R  .S y.o.Q r.L d./ %X] %.",
"S s U g v K.H.>.Q y > | L x s.O.y S y y.H.] ;.3.Q x c y.y v *.Y Y u l r 6.M n d.%.x 6.v H d.6.y.B.L Q n.c.l  .T.T.d.L B.:.[ d.v.",
"M.S U i.I ;.U j J x y m o.z H.J.b ^ %.q.r.c.] ;.3.c.C.K.p.c.O.r L r s B P H v v.M y.O.*.I R N S.m + l j +. .S.e.H Q X.%.M r R | ",
"X.[ s.X.%.j O L @XJ.Q.Q Y p Q r.] / S U e.} y U ] P.H.| ] T. .U Y.e.p Q I.+XB.%.I.K o.I  .Q X.S.N.j s > p s y.X.O.I *.I.6.H M * ",
"X.]  .%.U N z U Y I v.r.h R J m l l h y r.y.Y b c...h H s ] L b H Q *.c.Y.X.x O.%.@X..N c.Q / {.].;.^ Y y y r.! F.! l X.N.K r y ",
"U o.y l Q Y.S I N.X.I S *.| ;.N.s I j o.*.D.T.Y M U f ] S c Y Y c.D.S R B.U ! J t ] b N N.i.I -.e.%.S T.P...] s 6.C ).M.r.{ c.t ",
"Y.q.o . U `.I %.{.c.y f b %.] y j y S ] Y XX*.x Q L s y p l T.o.S.r.Q S b L b 9.5.b z Q U c b j W !.N ] T.v.I x Q x Q M Q p B.O.",
"+Xv.O.B.o.k.U B.Y.6.x ..Y I ..X.#.l W.Q q u.v ] {.%.;.X.X.X.l H.c.X.c.m I S 6.e.r.p %.*.y I N.) p L S.S ;...#.%.$.Q q 7 ] j o.r.",
"] Y e.F.v.Q *.Y U r.a K.%.v.N ] B.j .Xo.N e.L B {.Y a.s S M.Y @.r.| ] x r.Q R.s.d.Y D.I.$.{ R X.m > 6.B I ..[ *.d v.i.N ! ^ N I ",
"c y L Q B Q | O c L.j B.x ^.[ ~.P.I b 6.c.L W I.U c 6.G :.`.d.y n b M ] m v..Xq.S.6.e.m M N ] r.XX+XQ Q Y.%.L n.r t.U Y.P.( b p ",
".. .#.] N s s y 6.U ! { ] d.Q T v +X*.z y.Y ^ S.b o.B.] y.e.R M R X.R  .X.N.Y #.o.R k.O.3 | I b r.X.^ v...R m {.H y Q U U s 6.B.",
"I.N.B Q Q Q ..{ x.X.b * B O.f.] Y Q #.' %.Y l y m B./ | d.I B *.*.$.%.N.h b Q 5 Y %.M.|.]  . .Y.h r g M.N U H R ;.;.B.c o T {.T.",
"B.Q y #.$._.b B Q l E { K s h.l K x r  .X.F.%.j m 1 X Y U B [ %.v.{ L b m ] R Y X.B.Q |.m Y Q Q Z S.m H b J ] y p R 7.B.*.[ y.y.",
"[ a.p Z S h.L I O.u S J.Y B O.Q U o.N M N.c.M Q B./ L f.[ v.l ] Y.r.q b Y y.N.C.L B b '.r.J.] I 6 L.{.:.P.` J.O.g H d.r.i.;.i.C.",
"L _.N z p W.S o.q N.y d ..I M b.H.S.Q l o.c.4 D.R S S y.N ..Q $XT.e.c v R y.b v U I B.o...z l v & c T.1.:.] l L h r.|.Y.I U L Q ",
"p i.J.#.] 6.y y H.-X*.X.;.` s Q Q Y v.c.m R [  .e.B M.X.# b z B.C.Q S.*.I.$XQ B N.:.$.U y d I D.M.Q  .H.K.(.p.o.r.Q ].B o.p.M x ",
"S M.O.I h *.M.Q I b Y.U Y A [ m I H.C.N U a r L Q *.R #.%.c.S c c %.o.I ] z U ] O.;.S ] N p ] +XQ.Y Q N c.r.{. .6...S.B G *.] #.",
"1.N.6.b r Q Q S  .y I y y.] ) b Y y.6.M J.;Xc.b s C.G 2  .^ L N.Q ] x b z q H o.M N S = x ] j s P.J.v.b m L ;X+.B x d.I l b Y ;.",
"p U O.2.J R | ^ [ Q Y y L y f $.L U L N Y K D.z M J N.j U.I.;.T.v.P.] r.Q #.] N.M.] B Q A.I r.h Y d j t N s Y.:.J.W Y.H.%.x s.B ",
"B %.;.[ Y 9.F D +XJ.N.$.p : V ..S.N.*.;.e.t.S.) B.Q X.] %.K N *.K i.Y *.Y B s | D.P.$.;.N.s # d Q p ] O.*.;.Y.O.X.Y.`.C.y J.I H ",
"S.B.;.N N.Y.4 y  .Y z -.x x  .H U M h p a.p.i.j Y.J.H...x M.B y 6.D.M.p B s x ..T.N.S K c ] N.Y.B.Y.J.Y M ] *.] q r.e.H U N.S D.",
"a.N U d Q O.I U 6.b o.*...N.X.b y l c l Q $.X.M.%.R N I v K { [ i v.6.] 3.l B c.B.N g ] Q c Q %.{ o.r.r.p 1 X.[ y a H b e.K M o.",
"c.] K 0 x c I '.c.S.%.b O.H y l S *.*.4 Q N z I B H Q S.o.F.0 z O.x y v K.F.6.> u.Q S U.l C.M.%.$.S H H N 5 M.l Y  .$.N I J ] R ",
"N.I S ;.h l  .D.J.k.g 8 p L U *.p K.%.#.] Q B g R Q Q D.d.N l N.o.X.] ; Q b N j l t.X R p H.S.O.U N.c Q Q w Q c.N.B.%.S..Xi.I B.",
"k.Q ;.*.#.Z c l w.e.I / Q L.o.#.U T.Q | N y y.| ] H X b b R A v.B.k.&.B.^ v.#.;.y b.N.w.y q U Q U R ] ]. X*.#.@XF.F U S.*.C.b y "
};
