/* XPM */
static char *result[] = {
/* columns rows colors chars-per-pixel */
"64 64 18 1 ",
"  c #259605",
". c #2A9606",
"X c #269A05",
"o c #2C9C06",
"O c #2F9A08",
"+ c #309D07",
"@ c #339D08",
"# c #389E0A",
"$ c #27A005",
"% c #2DA106",
"& c #31A207",
"* c #32A907",
"= c #35A208",
"- c #3AA409",
"; c #35A808",
": c #3AA909",
"> c #40A60B",
", c #40AA0A",
/* pixels */
"=++&X%o%X+&X&-;&o&+++o=%X#&o.+ ++#--Xo&o+.#O+oo&&+@-=@=o=@=..@%+",
"O+.#O+%o&oO.+++&%++O;&o% O-  @oXOX-#@.+++X.X&&oXo&o=o=X#+==@OX&o",
" O. &@&o&o&=+.o#.+@X&=@. O=o;=X&.X#;=X=O&o;o%-&X+%Oo%@Xo@%===.@o",
"O;oo++=&o%=;o+O-+#:+X#oO.o=&;- %o+=#&+@&o&#Xo+#O+%@X+oo%=o.=%;=o",
"&*+%%o+O=%@#XO=X#&&-O.+@o%%&--XO&.#@.@==oo&o&#+#OooX===o=o&&o@#O",
"&&=&O.oX#o#+&O@+++o+O.OX=&oo+=o&@+-o-+%+;&o@,-&&o%@o==&#oO;oX-=&",
"%+=@o&&o=o=%oO.#&=%oO&;o+&%O@.Oo-=&-+o-++@++-#==O++o=%+@%.+&oXo#",
"@O+@+.&&ooo+o=O+*=&oo.+;&++=#+#.&&=:-==++O-@&%-O.##OOo+.XoX#X.@o",
"&X++O.OO#X .o&%%+#%oXo=:;=O@+ooo+.++-&++&O-+o==+OOO++X=. Oo#.o=&",
"Xoo%&+X&+O.O&Oo .+%oo@&%O==--X% +.@==%o##&+#O++=Oo%==O++Xo.+++&%",
" o+o=+o=X-;;+O.O+#.-o+@XOO.-%oooo&&&+Ooo=+@++%o#o&&&# #=-o+===+X",
"o+&O-=ooO=o#&%;&;o+@+&%&%O #+=oO=&.#o=+ -O++ooo+&%#+oXo=+&=&=%=O",
"+X++%&;o#++-OO=+;&&oo+&o+o+&#&=o==o%%&oX@+=@$XX#O+@@X%*oOo;;oO+&",
"%oX&=&=%#&+= O @+X-Xo+.O.O--;&&%oOO@Xo+X+&o;%oX#o@o&o=O&%%o=&&=o",
"%o+=O+-++++===&%.%oXoo&+X+=#@+O++XO@+O+O+&X-oO-#%.&&+@O&X%X+&=&o",
"XOOO+O#X++Oo;;:XO++@%$ooo=++@%..@+++Oo+=oX@%o=:X&.oooo+oO*%*&@=%",
"O.+O+%-+:-==%=@+&++oO.&o.OOO%oXX&=;&===#oo+O +;.@O +oo&oo&&oX@+o",
"XoO.O&oO=&-&=-o-.=&+@.&&@XX&&.Xo*=#Oo+=+O+@++#oo=-oX%oOX%O.  ##@",
"%XX&&+o+@+.-=@-&+=oo=o++%= o+. @=-@oo#++$=-o+* o;o+.O++=X=%.=@-o",
"X X%XX&o+oOo-===o&&=:&+&o-X +.Xo#+&++.X$%%++ *&@-o%oo=o#O-&oo+++",
". +=OO+o&&+ .@++@o@&==@+ #oo%o@o;=o@-$o%=o.o+=+@...oo;o@@@=o@@ #",
".O=&&+o+++@oo #O+.=X+#;# +&Xooo@-O.++&o%+o.Xo+@@X+&oOO%+++#=&=&&",
"o&+o+&==&O%*o$+&oooXo#@=o%@ XX=@#++===&+++o+X oo=.%oo++o&=--%-&+",
"&&+&+++:==&;oo.@=&= O;Ooo=XO+O=+X#-+#@+O+%&+.o%o+ +%o==@%;==o&-@",
"X+.o=+@#X@#=ooo=+#Oo%oX##O.%+@o&X-=&#+..+=+&&&o++o&o.-%-+@=+.&+@",
"@:&&=O++..OOo=o&=#OXooXO@.*%&@Xo*+=&+##Xo&-&=oo&o&+o=$X+@o+oO+.@",
"+-&+@.Oo.oOX&=@o:&#o .&o&oXOX@.+% ++&&OO+&=o%& :;&o +o OO+@oO+O+",
"Oo+o+X.o%O.+.o=-#oX%XOXX=XOo+;o&XOO.%=+XO++&.o @@+oO.+o.++@o=@@+",
"o+XO.+XO..o= +%-+oo=OXXO@%%=+=o;O+o&Xo&%+O-= -;=@o;+%+o=%o+o@+o&",
"=+-Oo:%o*%@+=o%#oo+#Xo%===.@ +--OO;&O O&=++++-+@#=;@+%+o$++@-O+o",
"-#@=X-+&**@&=#+=o.+@o o#o@+oXo#@O o&o@O+@++O:+O.+++@+%=oO.-X+o.+",
"++o=o=%&o.@#+@&==o+;o. .+.OXO&+&=oX&+=@@o@+.#+o@&++o&+++o OOo+&&",
"+oX+o=&+o.O=&o=&o&&oo%*:o&&ooX+%;= +&@=o&%o=-%o-oo +oX#o==&&&+#O",
"o&oo+Ooo&=&=&%&%+O#O=%*:%ooX=o&O&%o+o-%%ooo@=o%$oX.oo$+o#+-.=@@.",
"o++ &+@@=-&=+=&o%+=+:%&=%&X#++=++oX+==OO+&&o=@&%;.o&@+&o# -&+&+o",
"X+-oo@+-@-=&%@+*X=%&:%o-o@O=X#=o.+X-++= #-= +@+.&o+-#O++++=#o&o%",
"+oO+o&=+@#@+oo =&oX%&&.#%+.-=o;oO.X=+.+O=&+o&o*X@+-o=+&o-@:@$&=&",
"-%X.o#oO-@&-  o.+OXOO+-+X=XO-X#o&+++OOo++=.o&o#.+o=+o=.@++-+X.&%",
"X=-==@O+=-o&+.o @O&+#O=&X# =-@@oo+=&;:+++:&o-o@o $++%%o+@+@o o @",
" ==o@$&o&&XO&+&o%#%=XO#oOOXX+o==%=+%-=-=&#=#--=.&& @oo=&+#+=o*o&",
"X.@.+%=%=O O+O-oXO.-&o%%ooO=OO&o+XO.#X##oO++@-@#=++&#o%==-+&%o=@",
";X@=O%@o@o.++X=&Oo%-@+%%%==&=++.+. +++O+O-o+o@+#+Oo.o%==@+o%o.+o",
"+o=ooXOo&%-++O+=o$X+@OO+o==oo&%@==Oo*&=&=+&oo&o=@ X .X@++o&*#@O ",
"+oo&@OX++o&=.+@+o...@-oO=+X@.oo+@+&+=oo+%&%O@&$->&.+o.=X=ooo=@ .",
"+@.X+;XO=oo.=o%& +.&=-=&X+ OOO+o@-X#=+X@Oo+O&=o*@+.=&%%X@X;=@o&O",
"=#O.@:X%-@OXo%o.XXoo+:&.#+...X;=-=+X+++##+.&+O+.&:o%&&oo+o+.@O&o",
"%=+=@-+==@o%+o%+oO-& #+o-%&o+oX=++++Oo#+=Oo& o*Xo+-.%%o%$@o oo&=",
"o+===+&++-o%%=oo&X-++=oO;+-.X-+o=ooo++=-=+==oo+o+ @oo%X& ==oXX.O",
"+OO+O+o.O=o&o,o=&o+#@O&&++@+&-=.#@Xo+@:=-#@+Ooo@-&&+=&+#.#+-&X+.",
"%o$o+ .O@+X.o&&o+%&X-oo-O&=O=#@++o@oo&+o+@-%Xo++=oX&o++-@X+++ +=",
"&&o+++%o>++ +o-o++%$ooOX+&Xo=oO&@$@=X++ o&=-o$%=...=O+#@%&=+.O-;",
"&+O$%:oO@X+o@.-X#X.oo:%X+  +OOX&&o+++o@+o&&-+++oX-+++@oXX@#@&o##",
"o-XXO-+X+XX&+O%+++OO&+O+&X+-X@Xo=# O+#%=+o+-=&oO =;%&$%o.#-==%==",
"o-OX.-X&.&.X%oO+;-@X&+X-#XX-O%&===O++-OO+O&&%Xo+ O=$%%O+ =-=OO++",
"X-%%o#..=;&o%X.+@o@+O+Xo@O=%@+X#=@=&=;&o%%o+..o-=+%&%==&=+-o&&OO",
"o=+oX=-+OO;++XX+o==O++.++&+o++X+++&OoX+o%%ooooo&-o+O&=-%#%-oo&oo",
"%=#+.&&XoXoO=ooO+-@O+;@+ =o %o+&@OOO..+&X+X Oo. &%+++o;oOX@ooO+$",
"X+o%@+oXo@o.OXX$+++X++-Xo#&X*&%==&o&%oo&=oO@=o#X+X.OOX&%%&==%O-o",
"Oo&X+#oX%&&%X Xo=&*$@#-X&#ooo&O%+=o&+OXo-&%%& @ &Xo%+%&&o=:-.&o@",
";&%+== O%&X&Ooo#+...-==X*&;%.-Oo#==Oo o%;&X=o%=-==&oOo&o.#=@+*.-",
"-O+ o+o@@+&&%=o+XOO.@$&=o++o+@oo+@#o%oo&=O o+O+&o&&@. %oOo@+@@++",
"#X#.O+o-@-%oo+OXo&& &O.oo@+-%=. +o.+&=@ -oX=X-=%$o@@o =oo%oo+@o+",
"&oX&XXo=&-. O+++O%%%o&o.+++=-O.=+o% +++.O#.+O&-o+=O@& ++=&o=--o&",
"-@%+$XO.##ooo=&o+=ooO.@Oo@.+O&X@=:$&.=$%O++#..++++o--&o*=o+-&=OO"
};
