/* XPM */
static char *bd4a2d8a62ba4d9ec37c7e033c88b23bJq2igQJVBbL5oslT[] = {
/* columns rows colors chars-per-pixel */
"64 64 4 1 ",
"  c #3AA412",
". c #71C90B",
"X c #B7EA49",
"H c #B7921C",
/* pixels */
".......    ...................     ....HHHHHHHHHH........HHHHH..",
"......X   ...................     ...HHH....XX..HHHHHH.......X..",
"....XX   ...................     ..........XXX............XXXX..",
"...XX  ...................    ...........XXX............XXXX...H",
"..XX  .............XXX....  ............XX.............XXXX...HH",
"XX...............XXX.....  ..........XXXX............XXXXX...HHH",
"X...............XXXX................XXXX............XXXXX..HHHHH",
"...............XXX................XXXX..............XXX.....HHHH",
".............XXX.................XXX...............XX.........HH",
"...........XXX..................XX..............................",
"........XXXX....................X...........................HHHH",
"........XXX...............................  ...............HHHHH",
".......XX................................  .................HHHH",
"......XX...............................   ....................HH",
"......................................   .......................",
"....................................    .....................XX.",
"..................................    .....................XXX..",
"....................XXXXX........    ....................XXX....",
"...................XXXXX.......    ...................XXXXX.....",
".................XXXXX........   ...................XXXXX.......",
"................XXXX..........  .....X.............XXXX.........",
"..............XXXX.................XXX............XXX...........",
".............XXXX................XXXX............XX.............",
"............XXX.................XXXX........ ...................",
"...........XXX.................XXXX........  ...................",
"....  ...XXXX.................XXXX........   ...................",
"..   ....X...................XXX.........   ....................",
"    ........................XX...........  .................... ",
"   ........................XX..........  .....................  ",
"   .......................XX......................XX.........   ",
"  .............................................XXXX.........    ",
" ............................................XXXXX.........   ..",
"..........................................XXXXXXX........   ....",
"..............X..........................XXXXXX.................",
"...........XXXX.........................XXXXX...................",
".........XXXX...................  .....XXXX.....................",
"......XXXXXX......  ..........   .....XXX.......................",
".....XXXXX......    .........    .....XX........................",
".....XXX.......   .........    .......X...............  ........",
"....XXX......    ..........  .......................    ........",
"....XX......    ..........  .....................      .........",
"...X.......    .................................      ..........",
"..........  ..................................       ...........",
"..............................X...............     ..X..........",
".............................XX.............      .XXX..........",
"... .......................XXX.............. ....XXX............",
"..  .....................XXXXX..................XX............. ",
"   .....................XXXXX.................XXX.............  ",
"  .........X...........XXXXX...............XXXXX.............   ",
"  ......XXXX.........XXXX.................XXXX.............    .",
".......XXXX........XXXXX.................XXX....................",
"......XXXX.......XXXXX.................XXXX.....................",
".....XXXX........XXX..................XXXX......................",
"....XXX.........XXX..................XX.........................",
"...XXX..........................................................",
"..XXX.........................................   ...............",
".XXX.........................XX..............   ................",
"............................XXX.............   ........X........",
"............. .............XXXX.............  ........XX........",
"...........   ...........XX.XX.............   ......XXX.........",
"..........   ...........XXXXX.............   ......XXX..........",
"........    ...........XXXX.. ............ ......XXX............",
"......     ............XX..   ............ ......XX.............",
"....     ................    ..................................."
};
