/* XPM */
static char *result[] = {
/* columns rows colors chars-per-pixel */
"64 64 226 2 ",
"   c black",
".  c #020101",
"X  c #040300",
"o  c #020603",
"O  c #030703",
"+  c #060500",
"@  c #060402",
"#  c #070402",
"$  c #060606",
"%  c #080603",
"&  c #0A0603",
"*  c #040804",
"=  c #050B05",
"-  c #060E06",
";  c gray3",
":  c #0C0C0C",
">  c gray6",
",  c #100C01",
"<  c #120E01",
"1  c #100B06",
"2  c #071108",
"3  c #0A160A",
"4  c #0C1C0D",
"5  c #181201",
"6  c #1A1401",
"7  c #1E1701",
"8  c #1B1007",
"9  c #181009",
"0  c #1C130B",
"q  c #101010",
"w  c gray7",
"e  c #161616",
"r  c #181818",
"t  c #1E1E1E",
"y  c gray12",
"u  c #201801",
"i  c #201901",
"p  c #211409",
"a  c #241609",
"s  c #20160C",
"d  c #24180E",
"f  c #321E0D",
"g  c #0E210F",
"h  c #122913",
"j  c #132C14",
"k  c #153117",
"l  c #153217",
"z  c #183719",
"x  c #232206",
"c  c #302402",
"v  c #382B02",
"b  c #35200E",
"n  c #2E241A",
"m  c #302012",
"M  c #302112",
"N  c #3B3C1A",
"B  c #202020",
"V  c #232E23",
"C  c #2C2C2C",
"Z  c gray19",
"A  c #343434",
"S  c #3C3C3C",
"D  c gray24",
"F  c #3F3F3F",
"G  c #403002",
"H  c #403102",
"J  c #503C02",
"K  c #503D02",
"L  c #422811",
"P  c #472B12",
"I  c #402B18",
"U  c #402C18",
"Y  c #4A3018",
"T  c #48311B",
"R  c #583517",
"E  c #593617",
"W  c #58381B",
"Q  c #402F20",
"!  c #403F3D",
"~  c #403F3E",
"^  c #1D421E",
"/  c #3E4510",
"(  c #1F4721",
")  c #204A22",
"_  c #265828",
"`  c #275929",
"'  c #2B632D",
"]  c #2D672F",
"[  c #2E6B31",
"{  c #306E32",
"}  c #327335",
"|  c #347937",
" . c #357A38",
".. c #544003",
"X. c #5A4403",
"o. c #604903",
"O. c #684F03",
"+. c #745804",
"@. c #785B04",
"#. c #6A401B",
"$. c #73451D",
"%. c #77481E",
"&. c #594738",
"*. c #604124",
"=. c #60472F",
"-. c #704C2A",
";. c #78512D",
":. c #56783A",
">. c gray25",
",. c #494949",
"<. c #4C4C4C",
"1. c #4E4E4E",
"2. c #5F5145",
"3. c #59534D",
"4. c #545C55",
"5. c #5A5A5A",
"6. c #5B5B5B",
"7. c gray37",
"8. c #605E5C",
"9. c #7B6754",
"0. c #7C6C5E",
"q. c #606060",
"w. c #6E6964",
"e. c #686868",
"r. c #6A6A6A",
"t. c #6D736D",
"y. c #79746F",
"u. c gray44",
"i. c #727272",
"p. c #777777",
"a. c gray47",
"s. c #797979",
"d. c #7B7B7B",
"f. c gray49",
"g. c #806104",
"h. c #906D04",
"j. c #9F7904",
"k. c #A07905",
"l. c #845022",
"z. c #8D5524",
"x. c #805730",
"c. c #8C5F35",
"v. c #805C3A",
"b. c #846235",
"n. c #986739",
"m. c #A06C3C",
"M. c #A06D3C",
"N. c #A8723F",
"B. c #B37A44",
"V. c #39833C",
"C. c #39843C",
"Z. c #418A3C",
"A. c #69A83E",
"S. c #6DAB3E",
"D. c #79B43E",
"F. c #3D8C40",
"G. c #3E8E41",
"H. c #449341",
"J. c #439A46",
"K. c #668340",
"L. c #47A44B",
"P. c #48A74C",
"I. c #49A74C",
"U. c #49A84D",
"Y. c #4AAB4E",
"T. c #4BAC4F",
"R. c #51AC4B",
"E. c #53AD4B",
"W. c #57B04C",
"Q. c #4CAF50",
"!. c #62A942",
"~. c #65AC42",
"^. c #6EB343",
"/. c #908313",
"(. c #B08505",
"). c #BF9105",
"_. c #B8930A",
"`. c #AA9714",
"'. c #C09106",
"]. c #CF9D06",
"[. c #C79E0B",
"{. c #DEBE15",
"}. c #E0A907",
"|. c #E3AC07",
" X c #E7AF07",
".X c #EFB507",
"XX c #F3B807",
"oX c #F7BB07",
"OX c #F9BD07",
"+X c #FFC107",
"@X c #F4C00C",
"#X c #BF8248",
"$X c #A6AE58",
"%X c #B08760",
"&X c #C08248",
"*X c #C4854A",
"=X c #C3864C",
"-X c #C8874B",
";X c #CF8D4E",
":X c #D29051",
">X c #DF9854",
",X c #E09854",
"<X c #EFA25A",
"1X c #F7A85D",
"2X c #FFAD60",
"3X c #FFB56F",
"4X c #F6B475",
"5X c #FFB774",
"6X c #F3B67C",
"7X c #FFBD7E",
"8X c #808080",
"9X c #868686",
"0X c gray54",
"qX c gray58",
"wX c #979797",
"eX c gray61",
"rX c #FFC288",
"tX c #FFD1A6",
"yX c #FFD6B0",
"uX c gray81",
"iX c #D5CBC2",
"pX c #EFEFEF",
"aX c #FFF5EC",
"sX c #FFFAF5",
"dX c white",
"fX c None",
/* pixels */
"fXfXfXfXfXfXfXfXfXfXfXfXfXfXfXfXfXfXfXfXfXfXfXfXfXfXfXfXfXfXfXfXfXfXfXfXfXfXfXfXfXfXfXfXfXfXfXfXfXfXfXfXfXfXfXfXfXfXfXfXfXfXfXfX",
"fXfXfXfXfXfXfXfXfXfXfXfXfXfXfXfXfXfXfXfXfXfXfXfXfXfXfXfXfXfXfXfXfXfXfXfXfXfXfXfXfXfXfXfXfXfXfXfXfXfXfXfXfXfXfXfXfXfXfXfXfXfXfXfX",
"fXfXfXfXfXfXfXfXfXfXfXfXfXfXfXfXfXfXfXfXfXfXfXfXfXfXfXfXfXfXfXfXfXfXfXfXfXfXfXfXfXfXfXfXfXfXfXfXfXfXfXfXfXfXfXfXfXfXfXfXfXfXfXfX",
"fXfXfXfXfXfXfXfXfXfXfXfXfXfXfXfXfXfXfXfXfXfXfXfXfXfXfXfXfXfXfXfXfXfXfXfXfXfXfXfXfXfXfXfXfXfXfXfXfXfXfXfXfXfXfXfXfXfXfXfXfXfXfXfX",
"fXfXfXfXfXfXfXfXfXfXfXfXfXfXfXfXfXfXfXfXfXfXfXfXfXfXfXfXfXfXfXfXfXfXfXfXfXfXfXfXfXfXfXfXfXfXfXfXfXfXfXfXfXfXfXfXfXfXfXfXfXfXfXfX",
"fXfXfXfXfXfXfXfXfXfXfXfXfXfXfXfXfXfXfXfXfXfXfXfXr.> > q q q > > > q q q > > <.fXfXfXfXfXfXfXfXfXfXfXfXfXfXfXfXfXfXfXfXfXfXfXfXfX",
"fXfXfXfXfXfXfXfXfXfXfXfXfXfXfXfXfXfXfXfXfXfXfXfXq.                          >.fXfXfXfXfXfXfXfXfXfXfXfXfXfXfXfXfXfXfXfXfXfXfXfXfX",
"fXfXfXfXfXfXfXfXfXfXfXfXfXfXfXfXfXfXfXfXfXfXF >.r   l V.V.V.V.V.V.V.V.V.l   q >.F fXfXfXfXfXfXfXfXfXfXfXfXfXfXfXfXfXfXfXfXfXfXfX",
"fXfXfXfXfXfXfXfXfXfXfXfXfXfXfXfXfXfXfXfXfXfX        ^ Q.Q.Q.Q.Q.Q.Q.Q.Q.^         fXfXfXfXfXfXfXfXfXfXfXfXfXfXfXfXfXfXfXfXfXfXfX",
"fXfXfXfXfXfXfXfXfXfXfXfXfXfXfXfXfXfXfXfX8Xq.    z _ | Q.Q.Q.Q.Q.Q.Q.Q.Q.| _ ^     q.8XfXfXfXfXfXfXfXfXfXfXfXfXfXfXfXfXfXfXfXfXfX",
"fXfXfXfXfXfXfXfXfXfXfXfXfXfXfXfXfXfXfX8X        { Q.Q.Q.Q.Q.Q.Q.Q.Q.Q.Q.Q.Q.C.        q.fXfXfXfXfXfXfXfXfXfXfXfXfXfXfXfXfXfXfXfX",
"fXfXfXfXfXfXfXfXfXfXfXfXfXfXfXfXfXfXfXe.  * g g  .Q.Q.Q.Q.Q.Q.Q.Q.Q.Q.Q.Q.Q.F.g g *   1.fXfXfXfXfXfXfXfXfXfXfXfXfXfXfXfXfXfXfXfX",
"fXfXfXfXfXfXfXfXfXfXfXfXfXfXfXfXfXq q ;   h L.L.Y.Q.Q.Q.Q.Q.Q.Q.Q.Q.Q.Q.Q.Q.T.L.L.h   $ q q fXfXfXfXfXfXfXfXfXfXfXfXfXfXfXfXfXfX",
"fXfXfXfXfXfXfXfXfXfXfXfXfXfXfXfXfX    o = k L.L.R.W.W.W.W.W.W.W.W.W.W.W.W.W.E.L.L.k = O     fXfXfXfXfXfXfXfXfXfXfXfXfXfXfXfXfXfX",
"fXfXfXfXfXfXfXfXfXfXfXfXfXfXfXfXfX    ( G.} g g /.{.{.{.{.{.{.{.{.{.{.{.{.{.`.g g } G.`     fXfXfXfXfXfXfXfXfXfXfXfXfXfXfXfXfXfX",
"fXfXfXfXfXfXfXfXfXfXfXfXfXfXfXfXfX    _ Q.V.    k.+X+X+X+X+X+X+X+X+X+X+X+X+X'.    V.Q.{     fXfXfXfXfXfXfXfXfXfXfXfXfXfXfXfXfXfX",
"fXfXfXfXfXfXfXfXfXfXfXfXfXfXfXfXfX    3 j / '.'. X+X+X+X+X+X+X+X+X+X+X+X+X+X.X'.'./ j 4     fXfXfXfXfXfXfXfXfXfXfXfXfXfXfXfXfXfX",
"fXfXfXfXfXfXfXfXfXfXfXfXfXfXfXfXfX        G +X+X+X+X+X+X+X+X+X+X+X+X+X+X+X+X+X+X+XG         fXfXfXfXfXfXfXfXfXfXfXfXfXfXfXfXfXfX",
"fXfXfXfXfXfXfXfXfXfXfXfXfXfXfX8Xu.    G g.j.+X+X(.g.(.+X+X+X+X+X+X+X+X+X(.g.k.+X+Xj.g.J     u.8XfXfXfXfXfXfXfXfXfXfXfXfXfXfXfXfX",
"fXfXfXfXfXfXfXfXfXfXfXfXfXfXfX        g.+X+X+X+Xo.  o.+X+X+X+X+X+X+X+X+Xo.  H +X+X+X+Xk.        d.fXfXfXfXfXfXfXfXfXfXfXfXfXfXfX",
"fXfXfXfXfXfXfXfXfXfXfXfXfXfX0X        g.+XoX}.}.O.i +.+X+X+X+X+X+XOX|.}...  v }.}.oX+Xk.        u.fXfXfXfXfXfXfXfXfXfXfXfXfXfXfX",
"fXfXfXfXfXfXfXfXfXfX                  g.+X).    k.+X+X+X+X+X+X+X+X].i             ).+Xk.                  fXfXfXfXfXfXfXfXfXfXfX",
"fXfXfXfXfXfXfXfXfXfX                  g.+X).    k.+X+X+X+X+X+X+X+X].i             ).+Xk.                  fXfXfXfXfXfXfXfXfXfXfX",
"fXfXfXfXfXfXfXfXfXfX  0 *X,X,X,X*X    , i K }.}.XX+X+X+X+X+X+Xh.i 6 X   c.,XN.    ).+Xk.    *X,X,X,X*X0   fXfXfXfXfXfXfXfXfXfXfX",
"fXfXfXfXfXfXfXfXfXfX  s >X2X2X2X,X        G +X+X+X+X+X+X+X+X+Xg.        M.2X&X    ).+Xk.    ,X2X2X2X>Xs   fXfXfXfXfXfXfXfXfXfXfX",
"fXfXfXfXfXfXfXfXfXfXp.y.v.x.x.x.-.        G +X+X+X+X].g.g.g.g.G   9 -.x.;X2X&X    ).+Xk.    -.x.x.x.v.y.p.fXfXfXfXfXfXfXfXfXfXfX",
"fXfXfXfXfXfXfXfXfXfXfXfXy                 G +X+X+X+Xk.            M ,X2X2X2X&X    ).+Xk.            y fXfXfXfXfXfXfXfXfXfXfXfXfX",
"fXfXfXfXfXfXfXfXfXfXfXfXt       , g.g.G   u g.g.g.g.K         I x.x.x.x.x.x.*.    o.g.g.g.g.,       t fXfXfXfXfXfXfXfXfXfXfXfXfX",
"fXfXfXfXfXfXfXfXfXfXfXfXt       i +X+Xg.                      x.2X;Xs                 o.+X+Xi       t fXfXfXfXfXfXfXfXfXfXfXfXfX",
"fXfXfXfXfXfXfXfXfXfXfXfX,.Z t   i +X+Xg.  : Z Z w         d M n.2X;Xs       : Z Z :   o.+X+Xi   r Z ,.fXfXfXfXfXfXfXfXfXfXfXfXfX",
"fXfXfXfXfXfXfXfXfXfXfXfXfXfXqX  i +X+Xg.  S pXpX5.        B.<X1X2X;Xs       S pXpXS   o.+X+Xi   a.fXfXfXfXfXfXfXfXfXfXfXfXfXfXfX",
"fXfXfXfXfXfXfXfXfXfXfXfXfXfXeX  7 .X.X@.  ! sXsX8.  $ q q =X2X2X2X:Xn q $   ~ sXsX!   X..X.X7   f.fXfXfXfXfXfXfXfXfXfXfXfXfXfXfX",
"fXfXfXfXfXfXfXfXfXfXfXfXfXfXwX  + c c 5   Q 7X7X=.  1.uXuX6X2X2X2X4XiXuX1.  Q 7X7XQ   < c c +   p.fXfXfXfXfXfXfXfXfXfXfXfXfXfXfX",
"fXfXfXfXfXfXfXfXfXfXfXfXfXfXfX            I 2X2X*.  q.dXdXrX2X2X2X7XaXdXq.  U 2X2XI             p.fXfXfXfXfXfXfXfXfXfXfXfXfXfXfX",
"fXfXfXfXfXfXfXfXfXfXfXfXfXfXfXp.e.        s x.x.x.x.%XyXyX5X2X2X2X3XtXyX%Xx.m.2X2XI         e.p.fXfXfXfXfXfXfXfXfXfXfXfXfXfXfXfX",
"fXfXfXfXfXfXfXfXfXfXfXfXfXfXfXfXfX              M.2X2X2X2X2X2X2X2X2X2X2X2X2X2X2X2XI         fXfXfXfXfXfXfXfXfXfXfXfXfXfXfXfXfXfX",
"fXfXfXfXfXfXfXfXfXfXfXfXfXfXfXfXfXS S t         ;.#X#X#X#X#X#X#X#X#X#X#X#X#X#X#X#Xm   e S S fXfXfXfXfXfXfXfXfXfXfXfXfXfXfXfXfXfX",
"fXfXfXfXfXfXfXfXfXfXfXfXfXfXfXfXfXfXfXp.                                              5.fXfXfXfXfXfXfXfXfXfXfXfXfXfXfXfXfXfXfXfX",
"fXfXfXfXfXfXfXfXfXfXfXfXfXfXfXfXfXfXfXt.3 2     - 3 3 3 3 3 3 3 3 3 3 3 3 3 2     2 3 4.fXfXfXfXfXfXfXfXfXfXfXfXfXfXfXfXfXfXfXfX",
"fXfXfXfXfXfXfXfXfXfXfXfXfXfXfXfXfX    _ Q.V.    { Q.Q.Q.Q.Q.Q.Q.Q.Q.Q.Q.Q.Q.C.    V.Q.{     fXfXfXfXfXfXfXfXfXfXfXfXfXfXfXfXfXfX",
"fXfXfXfXfXfXfXfXfXfXfXfXfXfXfXfXfX    _ Q.V.    { Q.Q.Q.Q.Q.Q.Q.Q.Q.Q.Q.Q.Q.C.    V.Q.{     fXfXfXfXfXfXfXfXfXfXfXfXfXfXfXfXfXfX",
"fXfXfXfXfXfXfXfXfXfXfXfXfXfXfXt V J.J.L.Q.V.    { Q.Q.Q.Q.Q.Q.Q.Q.Q.Q.Q.Q.Q.C.    V.Q.P.J.J.V t 0XfXfXfXfXfXfXfXfXfXfXfXfXfXfXfX",
"fXfXfXfXfXfXfXfXfXfXfXfXfXfXfX  3 Q.Q.Q.Q.V.    { Q.Q.Q.Q.Q.Q.Q.Q.Q.Q.Q.Q.Q.C.    V.Q.Q.Q.Q.3   p.fXfXfXfXfXfXfXfXfXfXfXfXfXfXfX",
"fXfXfXfXfXfXfXfXfXfXfXfXfXp.0.x.b.$X$XK._ ^     { Q.Q.Q.Q.Q.Q.Q.Q.Q.Q.Q.Q.Q.C.    ^ _ :.$X$Xb.x.9.p.9XfXfXfXfXfXfXfXfXfXfXfXfXfX",
"fXfXfXfXfXfXfXfXfXfXfXfXB   *.2X2X2X2Xx.        { Q.Q.Q.Q.Q.Q.Q.Q.Q.Q.Q.Q.Q.C.        *.2X2X2X2Xx.  B fXfXfXfXfXfXfXfXfXfXfXfXfX",
"fXfXfXfXfXfXfXfXfXfXfXfXB   T &X-X2X2Xx.  = j j ' C.C.C.C.A.D.D.D.S.Z.C.C.C.{ j j =   *.2X2X-X&X*.  B fXfXfXfXfXfXfXfXfXfXfXfXfX",
"fXfXfXfXfXfXfXfXfXfXfXfXy       s 2X2Xx.  j Q.Q.^         ).+X+X+X].i       j Q.Q.j   *.2X2Xs       y fXfXfXfXfXfXfXfXfXfXfXfXfX",
"fXfXfXfXfXfXfXfXfXfXfXfXt       s 2X2Xx.  j Q.Q.^         ).+X+X+X].i       j Q.Q.j   *.2X2Xs       t fXfXfXfXfXfXfXfXfXfXfXfXfX",
"fXfXfXfXfXfXfXfXfXfXfXfXfXfXfX  . 1 1 %   j Q.Q.U.L.]     ).+X+X+X].i   ] L.I.Q.Q.j   @ 1 1 .   i.fXfXfXfXfXfXfXfXfXfXfXfXfXfXfX",
"fXfXfXfXfXfXfXfXfXfXfXfXfXfXfX> > q q ;   h L.L.L.L.[ = = _.@X@X@X[.x = [ L.L.L.L.h   $ q q > > fXfXfXfXfXfXfXfXfXfXfXfXfXfXfXfX",
"fXfXfXfXfXfXfXfXfXfXfXfXfXfXfXfXfXfXfXe.  * g g g g ) G.G.!.^.^.^.~.H.G.) g g g g *   1.fXfXfXfXfXfXfXfXfXfXfXfXfXfXfXfXfXfXfXfX",
"fXfXfXfXfXfXfXfXfXfXfXfXfXfXfXfXfXfXfXs.            ^ Q.Q.Q.Q.Q.Q.Q.Q.Q.^             6.fXfXfXfXfXfXfXfXfXfXfXfXfXfXfXfXfXfXfXfX",
"fXfXfXfXfXfXfXfXfXfXfXfXfXfXfXfXfXp.p.2.P P P P P P N _ _ _ _ _ _ _ _ _ N P P P P P P &.p.p.fXfXfXfXfXfXfXfXfXfXfXfXfXfXfXfXfXfX",
"fXfXfXfXfXfXfXfXfXfXfXfXfXfXfXfXfX    P z.z.z.z.z.z.E                   E z.z.z.z.z.z.R     fXfXfXfXfXfXfXfXfXfXfXfXfXfXfXfXfXfX",
"fXfXfXfXfXfXfXfXfXfXfXfXfXfXfXfXfX    P z.z.z.z.%.#.L     Z D S D A ;   L #.$.z.z.z.z.R     fXfXfXfXfXfXfXfXfXfXfXfXfXfXfXfXfXfX",
"fXfXfXfXfXfXfXfXfXfXfXfXfXfXfXfXfX    P z.z.z.z.b         fXfXfXfXfXB       a z.z.z.z.R     fXfXfXfXfXfXfXfXfXfXfXfXfXfXfXfXfXfX",
"fXfXfXfXfXfXfXfXfXfXfXfXfXfXfXfXfX> > Y l.l.l.l.f   $ q > fXfXfXfXfXC q $   p l.l.l.l.W > > fXfXfXfXfXfXfXfXfXfXfXfXfXfXfXfXfXfX",
"fXfXfXfXfXfXfXfXfXfXfXfXfXfXfXfXfXfXfXw.8 8 8 8 &   1.fXfXfXfXfXfXfXfXfX1.  # 8 8 8 8 3.fXfXfXfXfXfXfXfXfXfXfXfXfXfXfXfXfXfXfXfX",
"fXfXfXfXfXfXfXfXfXfXfXfXfXfXfXfXfXfXfXs.            7.fXfXfXfXfXfXfXfXfX7.            6.fXfXfXfXfXfXfXfXfXfXfXfXfXfXfXfXfXfXfXfX",
"fXfXfXfXfXfXfXfXfXfXfXfXfXfXfXfXfXfXfXfXfXfXfXfXfXfXfXfXfXfXfXfXfXfXfXfXfXfXfXfXfXfXfXfXfXfXfXfXfXfXfXfXfXfXfXfXfXfXfXfXfXfXfXfX",
"fXfXfXfXfXfXfXfXfXfXfXfXfXfXfXfXfXfXfXfXfXfXfXfXfXfXfXfXfXfXfXfXfXfXfXfXfXfXfXfXfXfXfXfXfXfXfXfXfXfXfXfXfXfXfXfXfXfXfXfXfXfXfXfX",
"fXfXfXfXfXfXfXfXfXfXfXfXfXfXfXfXfXfXfXfXfXfXfXfXfXfXfXfXfXfXfXfXfXfXfXfXfXfXfXfXfXfXfXfXfXfXfXfXfXfXfXfXfXfXfXfXfXfXfXfXfXfXfXfX",
"fXfXfXfXfXfXfXfXfXfXfXfXfXfXfXfXfXfXfXfXfXfXfXfXfXfXfXfXfXfXfXfXfXfXfXfXfXfXfXfXfXfXfXfXfXfXfXfXfXfXfXfXfXfXfXfXfXfXfXfXfXfXfXfX",
"fXfXfXfXfXfXfXfXfXfXfXfXfXfXfXfXfXfXfXfXfXfXfXfXfXfXfXfXfXfXfXfXfXfXfXfXfXfXfXfXfXfXfXfXfXfXfXfXfXfXfXfXfXfXfXfXfXfXfXfXfXfXfXfX"
};
